<svg viewBox="0 0 560 560" version="1.1" xmlns="http://www.w3.org/2000/svg" xmlns:xlink="http://www.w3.org/1999/xlink" style="stroke-miterlimit:1.41421;clip-rule:evenodd;fill-rule:evenodd;stroke-linejoin:round">
 <path d="m105.9 448c-42.02-43.537-67.887-102.77-67.887-168 0-133.56 108.43-241.99 241.99-241.99 133.56 0 241.99 108.43 241.99 241.99 0 65.23-25.864 124.46-67.887 168h-348.2" style="fill:#222"/>
 <path d="m125.92 448c-45.43-41.69-73.921-101.54-73.921-168 0-125.84 102.16-228 228-228 125.84 0 228 102.16 228 228 0 66.46-28.494 126.31-73.921 168h-308.16" style="fill:#f8d70a"/>
 <g transform="matrix(.625 0 0 .625 104.83 81.84)">
  <path d="m548.02 331.76c0 125.83-120.11 227.83-268.27 227.83-148.16 0-268.27-102-268.27-227.83 0-125.83 120.11-227.83 268.27-227.83 148.16 0 268.27 102 268.27 227.83" style="fill:url(#0);stroke-width:2.567"/>
  <path d="m64.736 182.4c25.26-29.587 47.568-38.993 116.64-60.883-38.99 8.186-59.34-2.115-77.912-37.24 20.346 18.784 38.41 28.488 87.7 4.149 13.12-6.477 10.01-27.717 0-42.517 16.702 2.766 34.937 22.866 46.783 35.18l13.797-76.37h25.01l-10.944 61.711c14.538-15.409 29.548-32.13 44.85-31.864-21.37 26.878-21.955 37.43 6.622 58.36 16.843 4.92 15.792-16.825-3.568-35.28 30.931 15.11 46.19 31.959 30.3 45.29 83.34 12.248 118.43 36.979 153.16 79.45-52.02-33.483-110.57-31.964-179.89-24.02 50.46 26.968 53.37 85.06 41.723 152.82-21.494-71.969-52.657-121.73-102.3-136.26-7.808 70.33-59.58 83.06-140.18 50.979 78.71-7.716 118.9-22.738 74.63-61.6-26.744-23.478-70.16-1.873-126.43 18.08" transform="translate(0 11)" style="fill:#172d18"/>
  <path d="m64.736 193.4c25.26-29.587 47.568-49.993 116.64-71.883-38.99 8.186-56.97 1.532-77.912-26.24 20.346 18.784 38.41 17.488 87.7-6.851 13.12-6.477 14.874-19.699 0-31.517 16.702 2.766 34.937 11.866 46.783 24.18l13.797-81.1h28l-13.932 66.44c14.538-15.409 29.548-21.13 44.85-20.864-21.37 13.01-28.577 28.777 0 49.709 16.842 4.92 17.986-10.155 3.054-26.622 30.931 15.11 42.34 27.572 26.443 40.903 83.33 12.248 122.28 41.37 157.01 83.84-52.02-33.483-110.57-42.964-179.89-35.02 50.46 26.968 55.07 84.06 43.43 151.82-21.495-71.969-54.36-120.73-104-135.26-7.808 70.33-60.821 82.97-140.18 61.979 78.71-7.716 118.9-33.738 74.63-72.6-26.744-23.478-71.66-1.984-126.43 29.08" style="fill:#659b41"/>
  <path d="m111.42 29.02h-5.876l3.075 3.164-1.906 10.908c0 0-.754 3.099 0 5.906.516 1.921-.321 3.447-2.406 3.642-1.165-.033-2.01-.388-2.576-1.067-.565-.682-.39-2.364.564-4.985-1.31 2.686-3.676 3.333-7.101 1.94 3.743 1.685 5.194 3.045 4.38 4.047-.918 1.198-2.579 3.108-5.02 5.73 3.746-2.168 6.855-2.978 9.328-2.427 3.565.808 5.865 2.394 6.886 4.822 1.063-3.044 1.499-5.341 1.45-6.895 2.296-1.101 6.111-.614 11.481 1.457-3.712-2.914-7.767-4.588-10.627-5.332.236-.909-.395-1.919 1.514-3.342l-3.568 1.391c-2.174 1.077-2.268-2.195-1.802-4.887l2.201-14.07" transform="matrix(4.97 0 0 4.97-272.85-144.24)" style="fill:#066839"/>
 </g>
 <g transform="matrix(2.333 0 0 2.333 19 33.48)">
  <path d="m29.04 172.29c0 0-17.08-1.234-28.957 11.795 9.12 4.403 13.174 5.462 13.174 5.462l-5.36 22.359c0 0 23.457-12.325 36.779-10.742-2.896-7.04-15.636-28.874-15.636-28.874" style="fill:url(#1)"/>
  <path d="m194.82 172.29c0 0 17.08-1.234 28.958 11.795-9.119 4.403-13.174 5.462-13.174 5.462l5.36 22.359c0 0-23.458-12.325-36.78-10.742 2.897-7.04 15.636-28.874 15.636-28.874" style="fill:url(#2)"/>
  <path d="m197.57 197.29c0 0 3.043-27.12 4.055-37.15-67.941-11.354-117.12-11.343-179.4 1.938.868 10.566 3.328 28.702 4.054 34.865 7.384-1.587 92.09-11.449 171.29.349" style="fill:url(#3)"/>
 </g>
 <g transform="translate(1)">
  <path d="m478.32 493.66l-54.638 12.551c0 0-10.334-8.37-1.726-19.358 15.918 1.048 56.36 6.807 56.36 6.807m-398.55-.56l54.64 12.551c0 0 10.332-8.37 1.729-19.358-15.916 1.048-56.37 6.807-56.37 6.807" style="fill:#222"/>
 </g>
 <defs>
  <radialGradient id="0" cx="0" cy="0" r="1" gradientUnits="userSpaceOnUse" gradientTransform="matrix(47.09 248.99-367.48 69.5 197.14 310.6)">
   <stop offset="0%" style="stop-color:#fcba63"/>
   <stop offset="52%" style="stop-color:#ee2725"/>
   <stop offset="100%" style="stop-color:#b31c24"/>
  </radialGradient>
  <linearGradient id="1" x1="0" x2="1" gradientUnits="userSpaceOnUse" gradientTransform="matrix(0-39.648 39.648 0 22.375 211.91)">
   <stop offset="0%" style="stop-color:#0c6938"/>
   <stop offset="90%" style="stop-color:#89c443"/>
   <stop offset="90%" style="stop-color:#89c443"/>
   <stop offset="100%" style="stop-color:#8cc643"/>
  </linearGradient>
  <linearGradient id="2" x1="0" x2="1" gradientUnits="userSpaceOnUse" gradientTransform="matrix(0 39.648-39.648 0 201.48 211.91)" xlink:href="#1"/>
  <linearGradient id="3" x1="0" x2="1" gradientUnits="userSpaceOnUse" gradientTransform="matrix(0-45.33 45.33 0 111.93 197.29)">
   <stop offset="0%" style="stop-color:#0c6938"/>
   <stop offset="80%" style="stop-color:#6aa642"/>
   <stop offset="80%" style="stop-color:#6aa642"/>
   <stop offset="100%" style="stop-color:#8cc643"/>
  </linearGradient>
 </defs>
</svg>
