<svg viewBox="0 0 560 560" version="1.1" xmlns="http://www.w3.org/2000/svg" style="stroke-miterlimit:1.41421;clip-rule:evenodd;fill-rule:evenodd;stroke-linejoin:round">
 <path d="m76.48 178.14c-.979-3.325-1.482-6.709-1.482-10.141 0-46.36 91.86-84 205-84 113.14 0 205 37.639 205 84 0 3.432-.503 6.816-1.482 10.141l-43.518 297.86c0 46.36-71.69 84-160 84-88.31 0-160-37.639-160-84l-43.518-297.86" style="fill:url(#0)"/>
 <path d="m308 272.15v241.13h-56v-241.12h56m-98.05-4.232l11.984 242.15c-15.775-2.177-28.957-5.185-40.01-8.681l-22.16-244.18c14.308 4.181 30.964 7.923 50.19 10.711m140.1 0l-11.984 242.15c15.775-2.177 28.957-5.185 40.01-8.681l22.16-244.18c-14.308 4.181-30.964 7.923-50.19 10.711m-227.94-26.583l31.14 246.46c-12.1-7.509-18.734-15.237-22.353-21.13l-36.25-242.08c9.592 10.99 27.462 16.755 27.462 16.755m315.78 0l-31.14 246.46c12.1-7.509 18.734-15.237 22.353-21.13l36.25-242.08c-9.592 10.99-27.462 16.755-27.462 16.755" style="fill:#eee"/>
 <path d="m112.45 134.99c.199-1.101.463-2.179.787-3.231-.794-1.756-1.236-3.704-1.236-5.755 0-7.727 6.273-14 14-14l.001-.181c.065-10.375 5.786-19.418 14.231-24.2-.153-1.185-.232-2.392-.232-3.618 0-15.454 12.546-28 28-28 5.099 0 9.881 1.366 14 3.751 4.119-2.385 8.901-3.751 14-3.751l.001-.181c.097-15.37 12.606-27.819 27.999-27.819 10.451 0 19.572 5.738 24.382 14.232 1.185-.153 2.392-.232 3.618-.232 1.327 0 2.632.092 3.91.271-2.483-4.18-3.91-9.06-3.91-14.271 0-15.454 12.546-28 28-28 5.099 0 9.881 1.366 14 3.751 4.119-2.385 8.901-3.751 14-3.751 15.454 0 28 12.546 28 28l.181.001c10.375.065 19.418 5.786 24.2 14.231 1.185-.153 2.392-.232 3.618-.232 1.226 0 2.433.079 3.618.232 4.81-8.494 13.931-14.232 24.382-14.232 15.454 0 28 12.546 28 28 0 1.226-.079 2.433-.232 3.618 8.494 4.81 14.232 13.931 14.232 24.382 0 5.762-1.744 11.12-4.732 15.573 10.905 3.828 18.732 14.221 18.732 26.427h.09c7.685.049 13.909 6.303 13.91 14h-9.08c5.892 6.293 9.08 13.02 9.08 20 0 35.32-81.55 64-182 64-100.45 0-182-28.677-182-64 0-8.874 5.147-17.329 14.449-25.01" style="fill:#f9d366"/>
 <g transform="matrix(0-1.063.979 0 184.31 278.37)">
  <ellipse cx="209.17" cy="126.3" rx="13.169" ry="14.296" style="fill:url(#1)"/>
 </g>
 <g transform="matrix(0-1.063.979 0 114.31 306.37)">
  <ellipse cx="209.17" cy="126.3" rx="13.169" ry="14.296" style="fill:url(#1)"/>
 </g>
 <g transform="matrix(0-1.063.979 0 240.31 278.37)">
  <ellipse cx="209.17" cy="126.3" rx="13.169" ry="14.296" style="fill:url(#1)"/>
 </g>
 <g transform="matrix(0-1.063.979 0 100.31 264.37)">
  <ellipse cx="209.17" cy="126.3" rx="13.169" ry="14.296" style="fill:url(#1)"/>
 </g>
 <g transform="matrix(0-1.063.979 0 142.31 264.37)">
  <ellipse cx="209.17" cy="126.3" rx="13.169" ry="14.296" style="fill:url(#1)"/>
 </g>
 <g transform="matrix(0-1.063.979 0 114.31 425.38)">
  <ellipse cx="209.17" cy="126.3" rx="13.169" ry="14.296" style="fill:url(#1)"/>
 </g>
 <g transform="matrix(1.063 0 0 .979 169.63-81.68)">
  <ellipse cx="209.17" cy="126.3" rx="13.169" ry="14.296" style="fill:url(#1)"/>
 </g>
 <g transform="matrix(0-1.063.979 0 72.32 376.37)">
  <ellipse cx="209.17" cy="126.3" rx="13.169" ry="14.296" style="fill:url(#1)"/>
 </g>
 <g transform="matrix(0-1.063.979 0 184.31 404.37)">
  <ellipse cx="209.17" cy="126.3" rx="13.169" ry="14.296" style="fill:url(#1)"/>
 </g>
 <g transform="matrix(0-1.063.979 0 226.31 306.37)">
  <ellipse cx="209.17" cy="126.3" rx="13.169" ry="14.296" style="fill:url(#1)"/>
 </g>
 <g transform="matrix(0-1.063.979 0 44.32 411.38)">
  <ellipse cx="209.17" cy="126.3" rx="13.169" ry="14.296" style="fill:url(#1)"/>
 </g>
 <g transform="matrix(0-1.063.979 0 254.31 348.37)">
  <ellipse cx="209.17" cy="126.3" rx="13.169" ry="14.296" style="fill:url(#1)"/>
 </g>
 <g transform="matrix(0-1.063.979 0 324.31 362.37)">
  <ellipse cx="209.17" cy="126.3" rx="13.169" ry="14.296" style="fill:url(#1)"/>
 </g>
 <g transform="matrix(0-1.063.979 0 128.31 334.37)">
  <ellipse cx="209.17" cy="126.3" rx="13.169" ry="14.296" style="fill:url(#1)"/>
 </g>
 <g transform="matrix(0-1.063.979 0 296.31 362.37)">
  <ellipse cx="209.17" cy="126.3" rx="13.169" ry="14.296" style="fill:url(#1)"/>
 </g>
 <g transform="matrix(0-1.063.979 0 44.32 334.37)">
  <ellipse cx="209.17" cy="126.3" rx="13.169" ry="14.296" style="fill:url(#1)"/>
 </g>
 <g transform="matrix(0-1.063.979 0 156.31 390.37)">
  <ellipse cx="209.17" cy="126.3" rx="13.169" ry="14.296" style="fill:url(#1)"/>
 </g>
 <g transform="matrix(0-1.063.979 0 198.31 250.37)">
  <ellipse cx="209.17" cy="126.3" rx="13.169" ry="14.296" style="fill:url(#1)"/>
 </g>
 <g transform="matrix(0-1.063.979 0 296.31 306.37)">
  <ellipse cx="209.17" cy="126.3" rx="13.169" ry="14.296" style="fill:url(#1)"/>
 </g>
 <g transform="matrix(0-1.063.979 0 2.315 390.37)">
  <ellipse cx="209.17" cy="126.3" rx="13.169" ry="14.296" style="fill:url(#1)"/>
 </g>
 <g transform="matrix(0-1.063.979 0 254.31 418.37)">
  <ellipse cx="209.17" cy="126.3" rx="13.169" ry="14.296" style="fill:url(#1)"/>
 </g>
 <g transform="matrix(0-1.063.979 0 170.31 292.37)">
  <ellipse cx="209.17" cy="126.3" rx="13.169" ry="14.296" style="fill:url(#1)"/>
 </g>
 <g transform="matrix(0-1.063.979 0 198.31 320.37)">
  <ellipse cx="209.17" cy="126.3" rx="13.169" ry="14.296" style="fill:url(#1)"/>
 </g>
 <g transform="matrix(0-1.063.979 0 212.31 334.37)">
  <ellipse cx="209.17" cy="126.3" rx="13.169" ry="14.296" style="fill:url(#1)"/>
 </g>
 <g transform="matrix(0-1.063.979 0 142.31 348.37)">
  <ellipse cx="209.17" cy="126.3" rx="13.169" ry="14.296" style="fill:url(#1)"/>
 </g>
 <g transform="matrix(0-1.063.979 0 135.31 292.37)">
  <ellipse cx="209.17" cy="126.3" rx="13.169" ry="14.296" style="fill:url(#1)"/>
 </g>
 <g transform="matrix(0-1.063.979 0 114.31 376.37)">
  <ellipse cx="209.17" cy="126.3" rx="13.169" ry="14.296" style="fill:url(#1)"/>
 </g>
 <g transform="matrix(0-1.063.979 0 100.31 292.37)">
  <ellipse cx="209.17" cy="126.3" rx="13.169" ry="14.296" style="fill:url(#1)"/>
 </g>
 <g transform="matrix(0-1.063.979 0 86.32 348.37)">
  <ellipse cx="209.17" cy="126.3" rx="13.169" ry="14.296" style="fill:url(#1)"/>
 </g>
 <g transform="matrix(0-1.063.979 0 79.32 292.37)">
  <ellipse cx="209.17" cy="126.3" rx="13.169" ry="14.296" style="fill:url(#1)"/>
 </g>
 <g transform="matrix(0-1.063.979 0 58.32 348.37)">
  <ellipse cx="209.17" cy="126.3" rx="13.169" ry="14.296" style="fill:url(#1)"/>
 </g>
 <g transform="matrix(0-1.063.979 0 16.315 376.37)">
  <ellipse cx="209.17" cy="126.3" rx="13.169" ry="14.296" style="fill:url(#1)"/>
 </g>
 <g transform="matrix(0-1.063.979 0 254.31 390.37)">
  <ellipse cx="209.17" cy="126.3" rx="13.169" ry="14.296" style="fill:url(#1)"/>
 </g>
 <g transform="matrix(0-1.063.979 0 16.315 348.37)">
  <ellipse cx="209.17" cy="126.3" rx="13.169" ry="14.296" style="fill:url(#1)"/>
 </g>
 <g transform="matrix(0-1.063.979 0 156.31 236.37)">
  <ellipse cx="209.17" cy="126.3" rx="13.169" ry="14.296" style="fill:url(#1)"/>
 </g>
 <g transform="matrix(0-1.063.979 0 254.31 292.37)">
  <ellipse cx="209.17" cy="126.3" rx="13.169" ry="14.296" style="fill:url(#1)"/>
 </g>
 <g transform="matrix(0-1.063.979 0 198.31 376.37)">
  <ellipse cx="209.17" cy="126.3" rx="13.169" ry="14.296" style="fill:url(#1)"/>
 </g>
 <g transform="matrix(0-1.063.979 0 296.31 390.37)">
  <ellipse cx="209.17" cy="126.3" rx="13.169" ry="14.296" style="fill:url(#1)"/>
 </g>
 <g transform="matrix(0-1.063.979 0 170.31 418.37)">
  <ellipse cx="209.17" cy="126.3" rx="13.169" ry="14.296" style="fill:url(#1)"/>
 </g>
 <g transform="matrix(0-1.063.979 0 170.31 362.37)">
  <ellipse cx="209.17" cy="126.3" rx="13.169" ry="14.296" style="fill:url(#1)"/>
 </g>
 <g transform="matrix(0-1.063.979 0 58.32 397.37)">
  <ellipse cx="209.17" cy="126.3" rx="13.169" ry="14.296" style="fill:url(#1)"/>
 </g>
 <g transform="matrix(0-1.063.979 0 282.31 320.37)">
  <ellipse cx="209.17" cy="126.3" rx="13.169" ry="14.296" style="fill:url(#1)"/>
 </g>
 <g transform="matrix(0-1.063.979 0 30.32 306.37)">
  <ellipse cx="209.17" cy="126.3" rx="13.169" ry="14.296" style="fill:url(#1)"/>
 </g>
 <g transform="matrix(0-1.063.979 0 128.31 397.37)">
  <ellipse cx="209.17" cy="126.3" rx="13.169" ry="14.296" style="fill:url(#1)"/>
 </g>
 <g transform="matrix(0-1.063.979 0 282.31 334.37)">
  <ellipse cx="209.17" cy="126.3" rx="13.169" ry="14.296" style="fill:url(#1)"/>
 </g>
 <g transform="matrix(0-1.063.979 0 72.32 418.37)">
  <ellipse cx="209.17" cy="126.3" rx="13.169" ry="14.296" style="fill:url(#1)"/>
 </g>
 <g transform="matrix(0-1.063.979 0 198.31 292.37)">
  <ellipse cx="209.17" cy="126.3" rx="13.169" ry="14.296" style="fill:url(#1)"/>
 </g>
 <g transform="matrix(0-1.063.979 0 240.31 334.37)">
  <ellipse cx="209.17" cy="126.3" rx="13.169" ry="14.296" style="fill:url(#1)"/>
 </g>
 <g transform="matrix(0-1.063.979 0 170.31 306.37)">
  <ellipse cx="209.17" cy="126.3" rx="13.169" ry="14.296" style="fill:url(#1)"/>
 </g>
 <g transform="matrix(0-1.063.979 0 142.31 418.37)">
  <ellipse cx="209.17" cy="126.3" rx="13.169" ry="14.296" style="fill:url(#1)"/>
 </g>
 <g transform="matrix(0-1.063.979 0 149.31 334.37)">
  <ellipse cx="209.17" cy="126.3" rx="13.169" ry="14.296" style="fill:url(#1)"/>
 </g>
 <g transform="matrix(0-1.063.979 0 184.31 425.37)">
  <ellipse cx="209.17" cy="126.3" rx="13.169" ry="14.296" style="fill:url(#1)"/>
 </g>
 <g transform="matrix(0-1.063.979 0 2.315 362.37)">
  <ellipse cx="209.17" cy="126.3" rx="13.169" ry="14.296" style="fill:url(#1)"/>
 </g>
 <g transform="matrix(0-1.063.979 0 268.31 376.37)">
  <ellipse cx="209.17" cy="126.3" rx="13.169" ry="14.296" style="fill:url(#1)"/>
 </g>
 <g transform="matrix(0-1.063.979 0 198.31 348.37)">
  <ellipse cx="209.17" cy="126.3" rx="13.169" ry="14.296" style="fill:url(#1)"/>
 </g>
 <g transform="matrix(0-1.063.979 0 282.31 404.37)">
  <ellipse cx="209.17" cy="126.3" rx="13.169" ry="14.296" style="fill:url(#1)"/>
 </g>
 <g transform="matrix(0-1.063.979 0 170.31 250.37)">
  <ellipse cx="209.17" cy="126.3" rx="13.169" ry="14.296" style="fill:url(#1)"/>
 </g>
 <g transform="matrix(0-1.063.979 0 317.31 390.37)">
  <ellipse cx="209.17" cy="126.3" rx="13.169" ry="14.296" style="fill:url(#1)"/>
 </g>
 <g transform="matrix(0-1.063.979 0 268.31 264.37)">
  <ellipse cx="209.17" cy="126.3" rx="13.169" ry="14.296" style="fill:url(#1)"/>
 </g>
 <g transform="matrix(0-1.063.979 0 100.31 390.37)">
  <ellipse cx="209.17" cy="126.3" rx="13.169" ry="14.296" style="fill:url(#1)"/>
 </g>
 <g transform="matrix(0-1.063.979 0 100.31 334.37)">
  <ellipse cx="209.17" cy="126.3" rx="13.169" ry="14.296" style="fill:url(#1)"/>
 </g>
 <g transform="matrix(0-1.063.979 0 44.32 292.37)">
  <ellipse cx="209.17" cy="126.3" rx="13.169" ry="14.296" style="fill:url(#1)"/>
 </g>
 <g transform="matrix(0-1.063.979 0 282.31 278.37)">
  <ellipse cx="209.17" cy="126.3" rx="13.169" ry="14.296" style="fill:url(#1)"/>
 </g>
 <g transform="matrix(0-1.063.979 0 16.315 404.37)">
  <ellipse cx="209.17" cy="126.3" rx="13.169" ry="14.296" style="fill:url(#1)"/>
 </g>
 <g transform="matrix(0-1.063.979 0 72.32 320.37)">
  <ellipse cx="209.17" cy="126.3" rx="13.169" ry="14.296" style="fill:url(#1)"/>
 </g>
 <g transform="matrix(0-1.063.979 0 226.31 404.37)">
  <ellipse cx="209.17" cy="126.3" rx="13.169" ry="14.296" style="fill:url(#1)"/>
 </g>
 <g transform="matrix(0-1.063.979 0 240.31 376.37)">
  <ellipse cx="209.17" cy="126.3" rx="13.169" ry="14.296" style="fill:url(#1)"/>
 </g>
 <g transform="matrix(0-1.063.979 0 310.31 348.37)">
  <ellipse cx="209.17" cy="126.3" rx="13.169" ry="14.296" style="fill:url(#1)"/>
 </g>
 <g transform="matrix(0-1.063.979 0 44.32 362.37)">
  <ellipse cx="209.17" cy="126.3" rx="13.169" ry="14.296" style="fill:url(#1)"/>
 </g>
 <g transform="matrix(0-1.063.979 0 212.31 264.37)">
  <ellipse cx="209.17" cy="126.3" rx="13.169" ry="14.296" style="fill:url(#1)"/>
 </g>
 <g transform="matrix(0-1.063.979 0 184.31 236.37)">
  <ellipse cx="209.17" cy="126.3" rx="13.169" ry="14.296" style="fill:url(#1)"/>
 </g>
 <g transform="matrix(.5 0 0 .5 98 28)">
  <circle cx="238" cy="70" r="14" style="fill:#b62"/>
 </g>
 <g transform="matrix(.5 0 0 .5 322 126)">
  <circle cx="238" cy="70" r="14" style="fill:#b62"/>
 </g>
 <g transform="matrix(.5 0 0 .5 154 84)">
  <circle cx="238" cy="70" r="14" style="fill:#b62"/>
 </g>
 <g transform="matrix(.5 0 0 .5 196 98)">
  <circle cx="238" cy="70" r="14" style="fill:#b62"/>
 </g>
 <g transform="matrix(.5 0 0 .5 84 56)">
  <circle cx="238" cy="70" r="14" style="fill:#b62"/>
 </g>
 <g transform="matrix(.5 0 0 .5 70 84)">
  <circle cx="238" cy="70" r="14" style="fill:#b62"/>
 </g>
 <g transform="matrix(.5 0 0 .5 7 98)">
  <circle cx="238" cy="70" r="14" style="fill:#b62"/>
 </g>
 <g transform="matrix(.5 0 0 .5 238 70)">
  <circle cx="238" cy="70" r="14" style="fill:#b62"/>
 </g>
 <g transform="matrix(.5 0 0 .5 84 98)">
  <circle cx="238" cy="70" r="14" style="fill:#b62"/>
 </g>
 <g transform="matrix(.5 0 0 .5 63 161)">
  <circle cx="238" cy="70" r="14" style="fill:#b62"/>
 </g>
 <g transform="matrix(.5 0 0 .5 259 28)">
  <circle cx="238" cy="70" r="14" style="fill:#b62"/>
 </g>
 <g transform="matrix(.5 0 0 .5 189 35)">
  <circle cx="238" cy="70" r="14" style="fill:#b62"/>
 </g>
 <g transform="matrix(.5 0 0 .5 182 168)">
  <circle cx="238" cy="70" r="14" style="fill:#b62"/>
 </g>
 <g transform="matrix(.5 0 0 .5 168-7)">
  <circle cx="238" cy="70" r="14" style="fill:#b62"/>
 </g>
 <g transform="matrix(.5 0 0 .5 196 70)">
  <circle cx="238" cy="70" r="14" style="fill:#b62"/>
 </g>
 <g transform="matrix(.5 0 0 .5 294 133)">
  <circle cx="238" cy="70" r="14" style="fill:#b62"/>
 </g>
 <g transform="matrix(.5 0 0 .5 133 126)">
  <circle cx="238" cy="70" r="14" style="fill:#b62"/>
 </g>
 <g transform="matrix(.5 0 0 .5 119 35)">
  <circle cx="238" cy="70" r="14" style="fill:#b62"/>
 </g>
 <g transform="matrix(.5 0 0 .5 133 35)">
  <circle cx="238" cy="70" r="14" style="fill:#b62"/>
 </g>
 <g transform="matrix(.5 0 0 .5 308 84)">
  <circle cx="238" cy="70" r="14" style="fill:#b62"/>
 </g>
 <g transform="matrix(.5 0 0 .5 252 126)">
  <circle cx="238" cy="70" r="14" style="fill:#b62"/>
 </g>
 <g transform="matrix(.5 0 0 .5 14 154)">
  <circle cx="238" cy="70" r="14" style="fill:#b62"/>
 </g>
 <g transform="matrix(.5 0 0 .5 168 126)">
  <circle cx="238" cy="70" r="14" style="fill:#b62"/>
 </g>
 <g transform="matrix(.5 0 0 .5 294 56)">
  <circle cx="238" cy="70" r="14" style="fill:#b62"/>
 </g>
 <g transform="matrix(.5 0 0 .5 287 154)">
  <circle cx="238" cy="70" r="14" style="fill:#b62"/>
 </g>
 <g transform="matrix(.5 0 0 .5 280 14)">
  <circle cx="238" cy="70" r="14" style="fill:#b62"/>
 </g>
 <g transform="matrix(.5 0 0 .5 224 7)">
  <circle cx="238" cy="70" r="14" style="fill:#b62"/>
 </g>
 <g transform="matrix(.5 0 0 .5 238 14)">
  <circle cx="238" cy="70" r="14" style="fill:#b62"/>
 </g>
 <g transform="matrix(.5 0 0 .5 287 35)">
  <circle cx="238" cy="70" r="14" style="fill:#b62"/>
 </g>
 <g transform="matrix(.5 0 0 .5 322 98)">
  <circle cx="238" cy="70" r="14" style="fill:#b62"/>
 </g>
 <g transform="matrix(.5 0 0 .5 126 112)">
  <circle cx="238" cy="70" r="14" style="fill:#b62"/>
 </g>
 <g transform="matrix(.5 0 0 .5 63 42)">
  <circle cx="238" cy="70" r="14" style="fill:#b62"/>
 </g>
 <g transform="matrix(.5 0 0 .5 84 147)">
  <circle cx="238" cy="70" r="14" style="fill:#b62"/>
 </g>
 <g transform="matrix(.5 0 0 .5 301 105)">
  <circle cx="238" cy="70" r="14" style="fill:#b62"/>
 </g>
 <g transform="matrix(.5 0 0 .5 49 133)">
  <circle cx="238" cy="70" r="14" style="fill:#b62"/>
 </g>
 <g transform="matrix(.5 0 0 .5-7 119)">
  <circle cx="238" cy="70" r="14" style="fill:#b62"/>
 </g>
 <g transform="matrix(.5 0 0 .5 231 63)">
  <circle cx="238" cy="70" r="14" style="fill:#b62"/>
 </g>
 <g transform="matrix(.5 0 0 .5 210 98)">
  <circle cx="238" cy="70" r="14" style="fill:#b62"/>
 </g>
 <g transform="matrix(.5 0 0 .5 196-14)">
  <circle cx="238" cy="70" r="14" style="fill:#b62"/>
 </g>
 <g transform="matrix(.5 0 0 .5 238 140)">
  <circle cx="238" cy="70" r="14" style="fill:#b62"/>
 </g>
 <defs>
  <linearGradient id="0" x1="0" x2="1" gradientUnits="userSpaceOnUse" gradientTransform="matrix(0 476-476 0 280 84)">
   <stop offset="0%" style="stop-color:#eb2027"/>
   <stop offset="100%" style="stop-color:#b92127"/>
  </linearGradient>
  <linearGradient id="1" x1="0" x2="1" gradientUnits="userSpaceOnUse" gradientTransform="matrix(26.338 0 0 28.591 196 126.3)">
   <stop offset="0%" style="stop-color:#ed9"/>
   <stop offset="100%" style="stop-color:#ffd"/>
  </linearGradient>
 </defs>
</svg>
