<svg viewBox="0 0 560 560" version="1.1" xmlns="http://www.w3.org/2000/svg" style="stroke-miterlimit:1.41421;clip-rule:evenodd;fill-rule:evenodd;stroke-linejoin:round">
 <path d="m70.62 264.95c-24.566-13.08-49.26-38.16-49.26-68.951 0-30.907 24.15-67.51 62.64-67.02 53.709.686 66.32 42.46 68.906 67.02 2.76 26.23 32.16 39.24 43.09 28 33.779-34.732-18.1-58.24-40.31-80.66-14.842-14.987-34.2-47.966-15.692-87.34 10.369-22.06 37.639-42 84-42 46.36 0 76.13 37.423 68.63 84-9.876 61.34-36.541 87.9 0 108.25 40.463 22.527 50.49-34.694 65.49-60.3 21.428-36.576 42.42-47.948 75.88-47.948 46.36 0 84 37.639 84 84 0 41.835-22.05 80.52-70 88.95-33.36 5.864-94.49 12.87-76.8 37.05 16.03 21.911 60.54 9.933 134.43 40.38 34.978 14.411 54.37 43.803 54.37 90.16 0 46.36-37.639 83.963-84 83.963-46.36 0-62.21-26.16-84-60.5-18.03-28.416-47.18-84.37-77.01-55.31-20.2 19.684 23.14 36.16 26.18 69.31 4.324 47.17-32.06 70-70.69 70-38.634 0-71.77-32.18-74.48-70-2.108-29.439-2.316-56.32-28-62.17-27.39-6.239-37.09 48.17-97.38 48.17-38.29 0-70.62-31.366-70.62-70 0-38.634 28.374-69.848 70.62-70 23.665-.085 65.05 14.183 69.38-14 3.778-24.617-50.09-32.775-69.38-43.05" style="fill:url(#0)"/>
 <path d="m224.27 14c3.352.016 6.7.218 10.03.639 5.438.689 10.806 1.954 15.955 3.839 3.272 1.197 6.453 2.643 9.5 4.333 3.108 1.724 6.075 3.702 8.858 5.912 4.425 3.515 8.375 7.618 11.727 12.168 2.7 3.664 5.01 7.613 6.902 11.752 2.837 6.204 4.728 12.823 5.715 19.57.805 5.503 1.01 11.09.687 16.637-.13 2.242-.348 4.477-.646 6.702-.237 1.772-.532 3.536-.836 5.298-.513 2.982-1.078 5.955-1.691 8.918-1.457 7.05-3.192 14.04-5.103 20.976-1.783 6.474-3.725 12.901-5.618 19.343-.276.942-.55 1.885-.823 2.828-.963 3.357-1.901 6.723-2.715 10.12-.659 2.749-1.24 5.52-1.652 8.317-.109.741-.206 1.484-.288 2.229-.469 4.248-.469 8.607.589 12.773.404 1.593.962 3.147 1.673 4.629.374.78.789 1.54 1.243 2.277.32.52.659 1.029 1.015 1.525 2.319 3.233 5.333 5.911 8.58 8.185.54.379 1.088.747 1.642 1.105.71.459 1.431.903 2.16 1.332.868.512 1.748 1.01 2.64 1.475.684.36 1.375.705 2.075 1.034.594.279 1.193.546 1.798.8 3.856 1.615 7.993 2.695 12.195 2.673.788-.004 1.577-.046 2.361-.13 1.166-.124 2.322-.338 3.454-.642 1.664-.448 3.274-1.089 4.798-1.892 3.566-1.875 6.625-4.589 9.263-7.609.42-.482.831-.972 1.232-1.469.574-.711 1.129-1.437 1.667-2.176.711-.975 1.393-1.971 2.051-2.983 1.29-1.984 2.488-4.03 3.621-6.106 1.315-2.412 2.544-4.87 3.72-7.352 2.82-5.948 5.34-12.03 7.93-18.08.335-.78.671-1.56 1.01-2.34 1.033-2.372 2.082-4.738 3.19-7.08.813-1.717 1.657-3.421 2.555-5.096.339-.632.686-1.261 1.042-1.884.361-.631.732-1.256 1.104-1.881.496-.833.997-1.663 1.505-2.489 1.991-3.237 4.076-6.416 6.286-9.507 4.542-6.352 9.627-12.367 15.522-17.509 2.842-2.48 5.87-4.748 9.08-6.734 3.171-1.964 6.512-3.649 9.977-5.03 3.708-1.476 7.549-2.602 11.453-3.424 4.265-.897 8.6-1.436 12.948-1.72 2.134-.14 4.273-.219 6.412-.248 1.1-.015 2.201-.02 3.302-.002 1.346.021 2.692.074 4.04.16 4.654.295 9.283.977 13.823 2.041 4.604 1.079 9.115 2.55 13.469 4.394 4.449 1.882 8.733 4.152 12.791 6.772 5.3 3.422 10.213 7.44 14.62 11.954 4.409 4.515 8.311 9.525 11.606 14.908 3.286 5.369 5.965 11.11 7.966 17.07 1.881 5.613 3.161 11.425 3.816 17.309.256 2.305.417 4.621.483 6.939.056 1.953.042 3.908-.015 5.861-.089 3.073-.299 6.142-.636 9.197-1.158 10.482-3.82 20.832-8.228 30.427-2.892 6.293-6.536 12.244-10.911 17.616-2.248 2.76-4.687 5.366-7.296 7.788-2.543 2.36-5.247 4.544-8.09 6.535-4.304 3.02-8.916 5.587-13.729 7.697-4.507 1.976-9.186 3.549-13.957 4.752-1.707.431-3.425.814-5.153 1.152-1.175.23-2.355.435-3.536.639-1.092.188-2.185.374-3.279.558-4.132.693-8.268 1.369-12.401 2.059-1.242.209-2.484.419-3.726.631-5.066.871-10.127 1.779-15.166 2.797-3.413.69-6.816 1.428-10.201 2.246-2.641.638-5.271 1.325-7.88 2.083-2.04.593-4.068 1.23-6.074 1.931-1.615.564-3.217 1.169-4.794 1.832-1.127.473-2.241.976-3.336 1.518-.82.406-1.628.833-2.421 1.288-.606.348-1.204.712-1.789 1.095-.469.308-.93.628-1.381.963-.352.262-.697.533-1.034.813-.253.211-.501.427-.744.649-1.591 1.458-2.977 3.215-3.667 5.283-.122.365-.221.738-.297 1.115-.106.533-.164 1.075-.173 1.619-.016.86.091 1.719.294 2.555.337 1.387.931 2.702 1.655 3.929.448.76.947 1.489 1.481 2.191.758.997 1.591 1.938 2.488 2.813 1.123 1.094 2.346 2.083 3.64 2.968 1.299.889 2.667 1.673 4.078 2.371 2.104 1.042 4.299 1.893 6.529 2.623 2.359.772 4.76 1.41 7.177 1.975 2.102.491 4.217.926 6.337 1.33 2.305.439 4.617.84 6.931 1.227 4.471.746 8.95 1.439 13.425 2.156 1.117.18 2.235.361 3.352.544 4.168.686 8.333 1.4 12.486 2.176 5.487 1.026 10.956 2.155 16.394 3.417 5.554 1.289 11.08 2.714 16.557 4.284 6.04 1.731 12.04 3.638 17.972 5.717 4.192 1.469 8.355 3.02 12.485 4.659.858.34 1.715.684 2.57 1.03.986.4 1.971.802 2.95 1.219.941.401 1.876.816 2.804 1.245 3.866 1.785 7.622 3.812 11.213 6.102 5.401 3.445 10.422 7.489 14.871 12.1 2.248 2.331 4.349 4.802 6.286 7.396 1.963 2.628 3.757 5.38 5.378 8.232 3.402 5.988 6.02 12.4 7.952 19.01 1.808 6.197 3.01 12.562 3.74 18.973.464 4.084.736 8.189.845 12.297.029 1.071.046 2.142.053 3.213.011 1.623-.008 3.245-.08 4.866-.169 3.802-.594 7.592-1.276 11.336-.805 4.425-1.97 8.785-3.479 13.02-1.569 4.408-3.511 8.682-5.796 12.766-3.289 5.878-7.289 11.357-11.88 16.286-4.584 4.921-9.756 9.292-15.375 12.989-6.68 4.396-13.986 7.83-21.636 10.158-5.858 1.782-11.91 2.914-18.01 3.379-1.608.122-3.22.199-4.833.229-1.081.021-2.162.019-3.243.005-1.399-.019-2.797-.062-4.193-.133-5.969-.301-11.925-1.102-17.713-2.605-2.724-.708-5.409-1.571-8.03-2.6-2.489-.978-4.919-2.107-7.27-3.381-2.171-1.176-4.274-2.477-6.3-3.888-1.269-.883-2.508-1.81-3.716-2.774-4.604-3.676-8.744-7.9-12.541-12.397-3.864-4.575-7.385-9.429-10.752-14.378-1.491-2.193-2.952-4.406-4.396-6.629-1.835-2.826-3.643-5.669-5.448-8.514-.961-1.514-1.925-3.03-2.879-4.547-.739-1.176-1.472-2.357-2.203-3.539-1.73-2.803-3.451-5.613-5.18-8.418-4.093-6.624-8.25-13.214-12.734-19.582-1.871-2.658-3.799-5.276-5.809-7.83-1.745-2.219-3.553-4.391-5.444-6.487-1.598-1.771-3.256-3.489-4.993-5.123-1.483-1.396-3.02-2.732-4.637-3.977-2.729-2.107-5.679-3.971-8.876-5.284-1.944-.798-3.979-1.384-6.06-1.666-1.413-.191-2.844-.241-4.266-.136-.982.072-1.96.217-2.921.432-.641.143-1.275.317-1.899.519-3.938 1.278-7.424 3.667-10.436 6.468-.921.857-1.804 1.755-2.599 2.731-1.334 1.639-2.429 3.497-3 5.542-.154.553-.269 1.117-.344 1.686-.112.856-.131 1.723-.064 2.584.19 2.437 1.051 4.774 2.158 6.935.199.39.408.776.624 1.158.976 1.725 2.093 3.367 3.265 4.964 1.295 1.765 2.662 3.478 4.045 5.176 1.413 1.735 2.844 3.456 4.263 5.187.438.537.876 1.075 1.312 1.614 2 2.493 3.969 5.02 5.797 7.647 2.775 3.986 5.251 8.205 7.06 12.721.459 1.145.875 2.307 1.242 3.485.579 1.858 1.035 3.754 1.352 5.674.114.696.211 1.396.289 2.097.11.987.186 1.977.252 2.967.145 2.205.204 4.416.166 6.625-.056 3.228-.32 6.454-.823 9.643-.54 3.422-1.355 6.802-2.47 10.08-1.575 4.636-3.75 9.07-6.488 13.13-2.756 4.089-6.069 7.79-9.794 11.02-3.794 3.289-8 6.086-12.46 8.395-7.31 3.788-15.264 6.268-23.373 7.631-3.674.618-7.385 1.01-11.11 1.179-2.555.119-5.117.149-7.671.033-2.969-.134-5.928-.46-8.855-.971-3.323-.58-6.604-1.398-9.811-2.442-2.493-.81-4.942-1.756-7.333-2.828-13.242-5.937-24.675-15.723-32.756-27.761-4.858-7.236-8.504-15.292-10.618-23.752-.64-2.56-1.14-5.154-1.493-7.769-.178-1.317-.314-2.638-.422-3.962-.079-1.065-.152-2.13-.226-3.195-.155-2.264-.308-4.528-.466-6.792-.08-1.112-.16-2.224-.244-3.336-.215-2.814-.451-5.626-.749-8.432-.22-2.068-.475-4.131-.776-6.189-.218-1.484-.466-2.965-.748-4.438-.219-1.141-.459-2.277-.726-3.408-.195-.825-.404-1.647-.63-2.464-.171-.623-.353-1.243-.545-1.86-1.331-4.277-3.189-8.44-5.917-12.02-.5-.656-1.028-1.291-1.584-1.9-.781-.856-1.617-1.663-2.503-2.41-1.302-1.1-2.711-2.07-4.198-2.903-2.542-1.424-5.297-2.44-8.124-3.131-.618-.151-1.24-.287-1.868-.389-.967-.157-1.945-.243-2.925-.249-1.428-.009-2.855.154-4.246.477-1.443.335-2.844.84-4.186 1.465-1.709.796-3.324 1.783-4.862 2.87-1.682 1.188-3.276 2.496-4.82 3.856-1.783 1.57-3.501 3.213-5.2 4.874-1.737 1.699-3.454 3.419-5.18 5.129-.4.394-.8.788-1.2 1.182-2.081 2.038-4.181 4.056-6.344 6.01-2.752 2.483-5.599 4.863-8.579 7.07-3.101 2.297-6.345 4.404-9.73 6.259-3.641 1.995-7.442 3.696-11.363 5.064-3.458 1.207-7 2.156-10.599 2.856-3.751.73-7.553 1.188-11.368 1.407-1.366.079-2.734.127-4.102.146-1.956.028-3.911-.007-5.863-.132-4.081-.261-8.139-.882-12.11-1.853-7.768-1.897-15.195-5.134-21.893-9.499-7.81-5.09-14.617-11.703-19.908-19.38-2.82-4.09-5.208-8.478-7.099-13.07-1.866-4.535-3.246-9.27-4.102-14.1-.515-2.908-.841-5.85-.976-8.801-.123-2.694-.087-5.397.084-8.089.305-4.794 1.061-9.56 2.285-14.206 1.434-5.442 3.512-10.716 6.212-15.656 1.99-3.642 4.316-7.101 6.947-10.312 2.63-3.211 5.565-6.173 8.752-8.833 3.236-2.7 6.731-5.087 10.419-7.126 3.546-1.961 7.269-3.6 11.1-4.909 6.1-2.083 12.473-3.324 18.898-3.797 2.131-.157 4.269-.235 6.406-.223 2.176.012 4.351.132 6.52.307 2.809.226 5.61.534 8.408.861 2.72.322 5.437.66 8.156.983 3.878.456 7.762.88 11.659 1.139 3.168.21 6.349.315 9.523.198 2.229-.082 4.456-.273 6.655-.647 2.283-.388 4.536-.977 6.674-1.873 2.054-.86 3.988-2.04 5.622-3.559 1.305-1.213 2.404-2.636 3.262-4.196.99-1.799 1.658-3.761 2.08-5.767.199-.946.355-1.905.418-2.871.091-1.4-.008-2.812-.31-4.183-.373-1.695-1.052-3.312-1.945-4.798-.801-1.331-1.768-2.558-2.832-3.689-1.907-2.027-4.117-3.755-6.43-5.293-1.448-.963-2.945-1.853-4.469-2.69-1.615-.887-3.263-1.714-4.93-2.498-4.374-2.057-8.88-3.827-13.419-5.482-5.671-2.067-11.407-3.947-17.12-5.878-.938-.318-1.876-.638-2.813-.96-2.618-.905-5.23-1.829-7.812-2.835-2.042-.795-4.068-1.638-6.04-2.6-1.261-.616-2.492-1.292-3.715-1.981-1.845-1.039-3.661-2.13-5.445-3.271-5.73-3.662-11.145-7.83-16.11-12.476-1.367-1.278-2.7-2.594-3.995-3.946-.971-1.014-1.921-2.049-2.848-3.105-6.124-6.981-11.258-14.913-14.564-23.616-.534-1.405-1.019-2.829-1.452-4.268-1.383-4.593-2.23-9.346-2.469-14.14-.219-4.397.073-8.816.783-13.159.656-4.02 1.67-7.98 2.999-11.83.805-2.332 1.727-4.623 2.758-6.864.711-1.546 1.475-3.067 2.291-4.56 4.61-8.447 10.88-16.04 18.569-21.863 1.058-.801 2.142-1.567 3.251-2.297 1.56-1.026 3.168-1.978 4.82-2.849 3.175-1.676 6.508-3.05 9.945-4.088 3.572-1.078 7.252-1.791 10.967-2.138 1.534-.143 3.073-.224 4.614-.244 1.25-.017 2.5.007 3.75.05 2.286.078 4.57.235 6.844.481 5.231.566 10.419 1.606 15.422 3.244 2.733.894 5.409 1.966 7.995 3.225 2.618 1.273 5.142 2.738 7.541 4.388 3.909 2.688 7.471 5.867 10.605 9.427 2.965 3.369 5.545 7.07 7.745 10.98 2.226 3.956 4.066 8.125 5.569 12.407 1.697 4.837 2.967 9.821 3.874 14.864.317 1.761.59 3.53.82 5.305.127.985.236 1.971.344 2.959.036.305.036.305.075.61.094.701.203 1.4.334 2.096.239 1.258.544 2.504.914 3.729 1.055 3.493 2.648 6.816 4.696 9.834 2.593 3.821 5.905 7.152 9.706 9.772 2.19 1.51 4.547 2.787 7.02 3.76 1.877.737 3.826 1.3 5.816 1.629 2.705.449 5.519.472 8.19-.201 1.837-.463 3.592-1.267 5.086-2.44.334-.262.655-.541.96-.837.29-.281.567-.575.845-.868.684-.722 1.35-1.46 1.996-2.215.501-.586.989-1.182 1.463-1.79 2.746-3.52 5.05-7.471 6.225-11.802.164-.602.305-1.21.424-1.822.171-.89.293-1.79.361-2.694.093-1.229.087-2.464-.016-3.692-.069-.81-.179-1.615-.329-2.414-.745-3.959-2.458-7.673-4.619-11.05-.411-.644-.839-1.278-1.283-1.899-.454-.636-.919-1.262-1.399-1.877-.572-.735-1.163-1.455-1.767-2.163-1.617-1.892-3.336-3.695-5.115-5.434-2.068-2.02-4.218-3.96-6.411-5.846-5.06-4.347-10.334-8.424-15.561-12.559-.682-.541-1.363-1.083-2.044-1.626-2.615-2.095-5.213-4.211-7.733-6.42-2.058-1.805-4.067-3.67-5.959-5.649-2.79-2.916-5.345-6.06-7.671-9.353-2.95-4.181-5.53-8.627-7.677-13.273-2.162-4.679-3.881-9.565-5.077-14.58-1.136-4.768-1.796-9.649-1.942-14.548-.15-5.03.243-10.06 1.148-15.01.857-4.684 2.172-9.28 3.869-13.728.588-1.54 1.221-3.062 1.897-4.566.522-1.162 1.068-2.313 1.657-3.443.955-1.831 2.01-3.609 3.156-5.328 3.731-5.6 8.401-10.547 13.651-14.746 1.637-1.309 3.331-2.547 5.072-3.714 1.306-.874 2.638-1.709 3.993-2.504 8.809-5.168 18.543-8.643 28.509-10.783 1.5-.322 3.01-.614 4.518-.878 1.876-.327 3.759-.61 5.647-.852 2.63-.337 5.27-.593 7.915-.776 3.14-.218 6.286-.327 9.434-.353.451-.003.903-.004 1.354-.004m-.766 14c-1.299.006-2.597.026-3.895.066-2.63.08-5.258.235-7.879.474-3.15.286-6.289.693-9.405 1.236-2.616.457-5.217 1.01-7.79 1.67-2.158.554-4.296 1.183-6.407 1.895-1.333.449-2.654.93-3.962 1.447-7.705 3.04-14.998 7.303-21.04 13-.81.764-1.597 1.553-2.358 2.366-1.01 1.078-1.968 2.199-2.875 3.361-1 1.285-1.942 2.622-2.804 4.01-.664 1.065-1.282 2.157-1.851 3.275-.324.637-.629 1.284-.925 1.934-.292.638-.574 1.281-.846 1.927-1.272 3.01-2.339 6.114-3.156 9.281-.711 2.756-1.233 5.562-1.545 8.391-.326 2.953-.421 5.931-.283 8.898.165 3.523.661 7.03 1.461 10.461.83 3.562 1.986 7.05 3.42 10.409 1.87 4.389 4.209 8.578 6.93 12.495 2.081 2.995 4.387 5.843 6.926 8.462 1.36 1.401 2.79 2.734 4.251 4.03 1.505 1.335 3.043 2.634 4.599 3.909 3.769 3.091 7.619 6.081 11.44 9.106.717.569 1.433 1.14 2.148 1.711 5.922 4.751 11.769 9.635 17.04 15.11 4.03 4.189 7.73 8.743 10.619 13.8 1.976 3.458 3.559 7.15 4.563 11.01.692 2.66 1.108 5.391 1.216 8.138.119 3.054-.143 6.12-.767 9.111-.585 2.803-1.485 5.535-2.641 8.153-1.848 4.185-4.34 8.06-7.205 11.622-1.041 1.294-2.133 2.548-3.265 3.764-.31.333-.623.663-.938.991-.262.271-.526.541-.797.803-.561.544-1.147 1.062-1.755 1.554-1.58 1.277-3.309 2.369-5.137 3.257-1.749.848-3.587 1.508-5.471 1.983-.911.23-1.833.417-2.761.561-6 .936-12.184.118-17.903-1.841-.842-.289-1.676-.603-2.5-.94-3.462-1.417-6.751-3.249-9.801-5.413-4.079-2.894-7.732-6.387-10.806-10.332-2.253-2.89-4.193-6.02-5.768-9.33-1.549-3.251-2.743-6.668-3.558-10.174-.281-1.213-.518-2.437-.71-3.667-.086-.555-.161-1.111-.231-1.668-.083-.706-.156-1.413-.238-2.118-.663-5.534-1.774-11.02-3.467-16.334-1.316-4.13-2.985-8.156-5.091-11.947-1.855-3.34-4.053-6.494-6.617-9.329-2.308-2.551-4.91-4.833-7.752-6.772-2.788-1.901-5.797-3.468-8.934-4.709-5.635-2.227-11.644-3.404-17.672-3.877-1.377-.108-2.757-.18-4.138-.219-.793-.022-1.586-.036-2.379-.029-1.063.011-2.125.058-3.183.145-2.334.191-4.652.572-6.922 1.147-2.229.565-4.41 1.317-6.515 2.243-1.297.57-2.564 1.206-3.797 1.902-.883.498-1.749 1.026-2.596 1.583-6.546 4.306-11.922 10.264-15.953 16.954-.715 1.186-1.388 2.397-2.02 3.629-.87 1.699-1.66 3.439-2.367 5.212-1 2.516-1.838 5.098-2.49 7.726-.601 2.426-1.046 4.891-1.31 7.377-.209 1.967-.306 3.948-.269 5.926.052 2.774.373 5.542.943 8.257.22 1.049.477 2.09.769 3.121 2.097 7.412 5.959 14.233 10.703 20.265.795 1.01 1.617 2 2.462 2.973 1.052 1.208 2.141 2.385 3.261 3.531 1.414 1.446 2.879 2.841 4.387 4.188 4.055 3.619 8.423 6.888 13.02 9.788 1.485.937 2.994 1.835 4.526 2.692.96.537 1.925 1.067 2.916 1.545.986.475 1.991.912 3 1.33 1.147.473 2.304.921 3.466 1.356 2.766 1.035 5.561 1.992 8.358 2.941 2.691.908 5.385 1.808 8.08 2.718 5.675 1.924 11.337 3.901 16.889 6.159 4.351 1.77 8.642 3.708 12.76 5.97 3.379 1.855 6.648 3.932 9.658 6.345 2.428 1.947 4.687 4.117 6.641 6.543 1.386 1.721 2.616 3.569 3.638 5.529 1.124 2.157 1.993 4.446 2.558 6.813.652 2.725.897 5.542.74 8.34-.106 1.882-.399 3.75-.809 5.588-.553 2.476-1.351 4.9-2.42 7.201-1.221 2.628-2.797 5.089-4.694 7.28-1.375 1.588-2.915 3.03-4.584 4.307-2.278 1.74-4.793 3.17-7.435 4.278-1.148.481-2.317.909-3.505 1.282-4.519 1.421-9.249 2.071-13.971 2.291-3.534.164-7.08.089-10.609-.118-4.748-.278-9.479-.798-14.201-1.358-2.481-.298-4.962-.605-7.444-.898-2.437-.286-4.876-.559-7.321-.764-2.01-.169-4.03-.298-6.05-.31-1.768-.01-3.537.056-5.299.186-5.354.394-10.666 1.432-15.739 3.199-3.045 1.061-5.999 2.382-8.811 3.961-2.898 1.626-5.643 3.525-8.181 5.671-2.496 2.11-4.791 4.456-6.847 6.998-1.995 2.467-3.764 5.115-5.285 7.9-2.157 3.947-3.813 8.161-4.959 12.51-.993 3.769-1.604 7.636-1.851 11.526-.146 2.302-.174 4.614-.053 6.918.128 2.458.424 4.908.884 7.326.772 4.052 2.01 8.01 3.673 11.786 1.694 3.843 3.826 7.49 6.332 10.859 4.275 5.75 9.631 10.685 15.702 14.49 5.05 3.164 10.589 5.542 16.37 6.992 3.283.824 6.641 1.349 10.02 1.564 1.588.102 3.179.128 4.771.105 1.166-.016 2.332-.057 3.497-.124 3.27-.188 6.53-.583 9.744-1.221 3.072-.609 6.1-1.442 9.05-2.508 3.686-1.333 7.234-3.03 10.603-5.03 3.167-1.882 6.172-4.03 9.04-6.341 2.744-2.216 5.362-4.584 7.913-7.02 2.66-2.538 5.25-5.148 7.864-7.733.389-.384.779-.767 1.17-1.15 3.6-3.512 7.284-6.966 11.376-9.904 2.073-1.488 4.248-2.839 6.535-3.971 2.553-1.265 5.245-2.253 8.03-2.876 1.774-.398 3.581-.647 5.397-.741 2.41-.125 4.831.027 7.209.433 1.442.247 2.868.589 4.277.982 2.086.581 4.136 1.297 6.124 2.159 1.819.789 3.585 1.7 5.277 2.734 1.873 1.145 3.654 2.44 5.318 3.872 1.9 1.635 3.646 3.448 5.217 5.401 1.591 1.978 3 4.099 4.238 6.316 3.424 6.142 5.472 12.949 6.813 19.824.195 1 .375 2 .543 3.01.804 4.819 1.32 9.681 1.732 14.548.423 4.993.737 9.994 1.084 14.993.041.571.08 1.141.123 1.712.115 1.414.274 2.824.49 4.226.413 2.68 1.018 5.329 1.801 7.924 1.985 6.582 5.115 12.803 9.132 18.377 6.671 9.257 15.805 16.765 26.28 21.315 1.513.658 3.054 1.253 4.617 1.782 4.365 1.478 8.905 2.438 13.498 2.825 1.072.09 2.146.149 3.222.177.868.023 1.737.023 2.605.011 1.029-.014 2.058-.048 3.086-.1 4.635-.238 9.254-.866 13.771-1.934 3.589-.848 7.115-1.975 10.511-3.414 3.892-1.65 7.617-3.714 11.01-6.235 2.702-2 5.191-4.3 7.368-6.866 1.755-2.068 3.304-4.31 4.613-6.686 1.237-2.244 2.258-4.605 3.063-7.04 1.483-4.481 2.229-9.183 2.408-13.894.08-2.086.049-4.175-.074-6.257-.032-.533-.07-1.065-.114-1.597-.056-.691-.123-1.381-.223-2.068-.193-1.326-.488-2.636-.87-3.92-.59-1.982-1.386-3.899-2.313-5.747-.994-1.982-2.139-3.886-3.369-5.73-1.631-2.447-3.41-4.792-5.242-7.092-1.942-2.44-3.945-4.831-5.921-7.244-.433-.53-.864-1.06-1.294-1.593-3.051-3.8-6.02-7.706-8.324-12.02-1.128-2.112-2.088-4.317-2.791-6.607-.86-2.8-1.326-5.721-1.296-8.653.027-2.699.476-5.388 1.322-7.952.725-2.197 1.737-4.295 2.972-6.25 1.048-1.659 2.254-3.215 3.572-4.667.768-.846 1.576-1.654 2.408-2.437 3.02-2.845 6.376-5.354 10.05-7.288 2.401-1.261 4.933-2.273 7.553-2.977 2.841-.764 5.777-1.163 8.719-1.178 2.551-.013 5.101.263 7.596.797 1.076.231 2.141.51 3.193.833.863.264 1.716.559 2.56.88 5.46 2.082 10.433 5.285 14.923 8.996.663.547 1.315 1.106 1.959 1.675 1.031.913 2.039 1.852 3.03 2.813 2.484 2.419 4.832 4.975 7.079 7.615 2.493 2.929 4.862 5.962 7.143 9.06 5.72 7.766 10.889 15.919 15.957 24.12 1.727 2.802 3.447 5.609 5.176 8.411.849 1.372 1.701 2.741 2.561 4.107 1.469 2.322 2.942 4.642 4.418 6.961 2.195 3.443 4.405 6.878 6.682 10.268 1.936 2.882 3.92 5.733 5.996 8.517 1.965 2.636 4.01 5.212 6.187 7.68 2.336 2.652 4.822 5.179 7.504 7.484 2.43 2.087 5.02 3.988 7.773 5.632 1.781 1.064 3.626 2.02 5.523 2.861 2 .888 4.06 1.647 6.154 2.285 5.03 1.53 10.247 2.362 15.483 2.728 1.809.127 3.622.198 5.435.222.93.013 1.861.014 2.791-.003 1.123-.021 2.246-.069 3.367-.144 4.379-.292 8.729-.994 12.976-2.1 4.14-1.079 8.179-2.543 12.05-4.364 3.569-1.679 6.995-3.663 10.231-5.92 5-3.49 9.549-7.632 13.49-12.289 3.816-4.508 7.06-9.499 9.627-14.819 1.825-3.784 3.306-7.733 4.417-11.785 1.06-3.862 1.782-7.817 2.162-11.805.156-1.633.254-3.272.296-4.912.036-1.425.026-2.852.003-4.277-.04-2.379-.137-4.757-.3-7.131-.115-1.662-.261-3.321-.443-4.976-1.023-9.322-3.167-18.585-7.01-27.17-.528-1.179-1.087-2.343-1.679-3.491-.787-1.526-1.63-3.02-2.532-4.483-1.347-2.184-2.823-4.288-4.423-6.294-2.553-3.203-5.42-6.152-8.538-8.807-4.725-4.02-10.01-7.362-15.579-10.08-1.241-.606-2.496-1.182-3.764-1.729-.745-.321-1.494-.63-2.245-.937-1.094-.447-2.191-.888-3.29-1.324-4.21-1.668-8.456-3.247-12.734-4.733-6.589-2.289-13.255-4.356-19.983-6.198-6.43-1.76-12.915-3.312-19.438-4.683-5.798-1.218-11.626-2.29-17.467-3.277-5.386-.91-10.784-1.746-16.177-2.612-1.01-.163-2.02-.327-3.03-.492-4.765-.791-9.528-1.623-14.24-2.691-3.556-.805-7.087-1.746-10.533-2.943-2.709-.94-5.366-2.042-7.915-3.359-1.71-.884-3.369-1.865-4.958-2.952-1.234-.844-2.424-1.751-3.56-2.722-1.036-.884-2.026-1.82-2.965-2.805-1.122-1.176-2.17-2.422-3.137-3.728-1.245-1.68-2.358-3.46-3.276-5.34-1.122-2.296-1.949-4.74-2.378-7.262-.147-.869-.248-1.745-.299-2.625-.069-1.184-.049-2.372.063-3.552.281-2.966 1.147-5.86 2.508-8.508.996-1.94 2.25-3.741 3.687-5.379 1.266-1.443 2.672-2.758 4.169-3.957 1.659-1.329 3.431-2.516 5.265-3.589 1.945-1.138 3.962-2.15 6.02-3.07 2.379-1.065 4.812-2.01 7.273-2.867 2.543-.888 5.117-1.686 7.708-2.423 3.145-.894 6.317-1.697 9.502-2.439 3.569-.832 7.156-1.587 10.751-2.294 9.333-1.835 18.726-3.341 28.11-4.9 1.368-.229 2.736-.458 4.103-.692 1.659-.285 3.317-.566 4.965-.908 2.512-.521 5-1.155 7.452-1.911 4.168-1.286 8.228-2.929 12.09-4.959 4.02-2.114 7.825-4.647 11.305-7.571 2.431-2.041 4.703-4.27 6.794-6.657 2-2.285 3.835-4.714 5.496-7.256 3.264-4.993 5.851-10.415 7.801-16.05 2.562-7.401 4.04-15.16 4.593-22.966.132-1.851.212-3.706.243-5.562.03-1.854.011-3.709-.089-5.561-.202-3.742-.702-7.467-1.5-11.128-.945-4.336-2.308-8.58-4.062-12.656-1.813-4.211-4.04-8.241-6.645-12.02-2.905-4.216-6.272-8.114-10.02-11.603-3.443-3.205-7.207-6.06-11.219-8.521-6.494-3.975-13.636-6.876-21.07-8.544-3.724-.836-7.517-1.364-11.327-1.581-.974-.056-1.949-.092-2.924-.107-.847-.013-1.694-.011-2.541-.001-1.58.017-3.159.063-4.737.146-5.212.274-10.425.937-15.474 2.289-2.023.542-4.02 1.194-5.962 1.969-1.901.757-3.756 1.63-5.548 2.616-2.484 1.366-4.846 2.947-7.08 4.696-2.497 1.959-4.828 4.123-7.02 6.42-2.128 2.233-4.123 4.591-6.01 7.03-2.088 2.692-4.049 5.481-5.916 8.33-1.196 1.826-2.354 3.678-3.479 5.548-.539.895-1.076 1.792-1.59 2.702-.397.702-.78 1.412-1.152 2.127-1.503 2.887-2.851 5.852-4.16 8.83-1.599 3.637-3.135 7.301-4.698 10.953-.356.829-.713 1.658-1.071 2.486-2.306 5.299-4.692 10.568-7.405 15.673-2.035 3.829-4.251 7.57-6.762 11.11-3.616 5.095-7.883 9.798-13.01 13.414-.789.557-1.597 1.087-2.422 1.587-2.485 1.507-5.135 2.742-7.897 3.647-2.066.676-4.192 1.166-6.344 1.464-1.725.238-3.467.353-5.208.349-1.277-.004-2.554-.071-3.825-.198-.989-.099-1.975-.235-2.954-.405-3.748-.648-7.399-1.794-10.895-3.282-2.286-.972-4.506-2.091-6.667-3.313-.998-.565-1.984-1.15-2.957-1.757-4.115-2.571-7.994-5.559-11.325-9.1-1.944-2.067-3.694-4.318-5.182-6.736-1.541-2.503-2.796-5.179-3.731-7.966-.493-1.472-.898-2.974-1.217-4.494-.231-1.099-.416-2.207-.558-3.32-.407-3.172-.464-6.381-.269-9.57.196-3.211.645-6.403 1.241-9.563.172-.911.356-1.818.55-2.724.262-1.22.543-2.436.837-3.648.375-1.544.772-3.081 1.185-4.615.595-2.213 1.22-4.417 1.858-6.617 1.059-3.649 2.149-7.288 3.223-10.933.305-1.04.61-2.08.912-3.121 1.159-4.01 2.288-8.02 3.342-12.06 1.355-5.192 2.59-10.416 3.663-15.673.532-2.601 1.024-5.21 1.475-7.826.26-1.513.517-3.03.725-4.549.268-1.955.462-3.92.577-5.889.277-4.737.093-9.505-.624-14.197-.885-5.787-2.588-11.455-5.17-16.715-1.496-3.046-3.283-5.95-5.345-8.647-2.645-3.461-5.74-6.573-9.189-9.233-4.305-3.32-9.144-5.917-14.259-7.749-4.053-1.452-8.271-2.425-12.54-2.966-2.531-.321-5.079-.486-7.63-.522-.468-.005-.935-.006-1.402-.005" style="fill:#304400;fill-rule:nonzero"/>
 <defs>
  <radialGradient id="0" cx="0" cy="0" r="1" gradientUnits="userSpaceOnUse" gradientTransform="matrix(308 0 0 308 252 308)">
   <stop offset="0%" style="stop-color:#809933"/>
   <stop offset="47%" style="stop-color:#91ad3d"/>
   <stop offset="100%" style="stop-color:#c0e45a"/>
  </radialGradient>
 </defs>
</svg>
