<svg viewBox="0 0 560 560" version="1.1" xmlns="http://www.w3.org/2000/svg" style="stroke-miterlimit:1.41421;clip-rule:evenodd;fill-rule:evenodd;stroke-linejoin:round">
 <g transform="translate(0-56)">
  <path d="m381.86 132.48c3.325-.979 6.709-1.482 10.141-1.482 46.36 0 84 91.86 84 205 0 113.14-37.639 205-84 205-3.432 0-6.816-.503-10.141-1.482l-297.86-43.518c-46.36 0-84-71.69-84-160 0-88.31 37.639-160 84-160l297.86-43.518" style="fill:url(#0)"/>
  <path d="m46.727 364h241.12v-56h-241.12v56m245.36-98.05l-242.15 11.984c2.178-15.775 5.185-28.957 8.681-40.01l244.18-22.16c-4.181 14.308-7.923 30.964-10.711 50.19m0 140.1l-242.15-11.984c2.178 15.775 5.185 28.957 8.681 40.01l244.18 22.16c-4.181-14.308-7.923-30.964-10.711-50.19m26.583-227.94l-246.46 31.14c7.509-12.1 15.237-18.734 21.13-22.353l242.08-36.25c-10.99 9.592-16.755 27.462-16.755 27.462m0 315.78l-246.46-31.14c7.509 12.1 15.237 18.734 21.13 22.353l242.08 36.25c-10.99-9.592-16.755-27.462-16.755-27.462" style="fill:#eee"/>
  <path d="m464 336c0 100.45-28.677 182-64 182-35.32 0-64-81.55-64-182 0-100.45 28.677-182 64-182 35.32 0 64 81.55 64 182" style="fill:url(#1)"/>
  <path d="m402.62 517.81c0 0-1.275-1.41-1.275-1.41-1.644.582-3.358 1.015-5.103 1.261-21.976-3.585-41-38.823-51.5-89.94 5.01-4.793 11.797-7.719 19.26-7.719 3.276 0 6.421.564 9.343 1.599 7.703-9.513 19.475-15.599 32.657-15.599 19.886 0 36.562 13.85 40.901 32.422 2.066-1.327 4.317-2.39 6.708-3.113 2.649-.86 5.468-1.309 8.391-1.309 15.454 0 28 12.546 28 28 0 .794-.033 1.581-.098 2.359 6.843 2.403 12.878 6.529 17.584 11.856 8.97 1.116 16.629 6.482 20.896 14.02 1.185-.153 2.392-.232 3.618-.232 15.454 0 28 12.546 28 28 0 15.454-12.546 28-28 28-10.451 0-19.572-5.738-24.382-14.232l-.054.007-.078.01c-7.698 8.715-18.955 14.215-31.486 14.215-12.966 0-24.567-5.888-32.27-15.13-3.122.742-6.379 1.134-9.726 1.134-12.495 0-23.723-5.468-31.382-14.189" style="fill:#f7d465"/>
 </g>
 <g style="fill:url(#2)">
  <ellipse cx="209.17" cy="126.3" rx="13.169" ry="14.296" transform="matrix(0-1.063.979 0 282.31 628.37)"/>
  <ellipse cx="209.17" cy="126.3" rx="13.169" ry="14.296" transform="matrix(0-1.063.979 0 310.31 628.37)"/>
  <ellipse cx="209.17" cy="126.3" rx="13.169" ry="14.296" transform="matrix(0-1.063.979 0 282.31 586.37)"/>
  <ellipse cx="209.17" cy="126.3" rx="13.169" ry="14.296" transform="matrix(0-1.063.979 0 240.31 600.37)"/>
  <ellipse cx="209.17" cy="126.3" rx="13.169" ry="14.296" transform="matrix(0-1.063.979 0 261.31 614.37)"/>
  <ellipse cx="209.17" cy="126.3" rx="13.169" ry="14.296" transform="matrix(0-1.063.979 0 338.31 614.37)"/>
  <ellipse cx="209.17" cy="126.3" rx="13.169" ry="14.296" transform="matrix(0-1.063.979 0 338.31 656.37)"/>
  <ellipse cx="209.17" cy="126.3" rx="13.169" ry="14.296" transform="matrix(0-1.063.979 0 310.31 684.37)"/>
  <ellipse cx="209.17" cy="126.3" rx="13.169" ry="14.296" transform="matrix(0-1.063.979 0 352.31 698.37)"/>
  <ellipse cx="209.17" cy="126.3" rx="13.169" ry="14.296" transform="matrix(0-1.063.979 0 408.31 670.37)"/>
  <ellipse cx="209.17" cy="126.3" rx="13.169" ry="14.296" transform="matrix(0-1.063.979 0 422.31 684.37)"/>
  <ellipse cx="209.17" cy="126.3" rx="13.169" ry="14.296" transform="matrix(0-1.063.979 0 408.31 698.37)"/>
  <ellipse cx="209.17" cy="126.3" rx="13.169" ry="14.296" transform="matrix(0-1.063.979 0 282.31 677.37)"/>
  <ellipse cx="209.17" cy="126.3" rx="13.169" ry="14.296" transform="matrix(0-1.063.979 0 310.31 600.37)"/>
  <ellipse cx="209.17" cy="126.3" rx="13.169" ry="14.296" transform="matrix(0-1.063.979 0 296.31 656.37)"/>
  <ellipse cx="209.17" cy="126.3" rx="13.169" ry="14.296" transform="matrix(0-1.063.979 0 366.31 684.37)"/>
  <ellipse cx="209.17" cy="126.3" rx="13.169" ry="14.296" transform="matrix(0-1.063.979 0 324.31 642.37)"/>
  <ellipse cx="209.17" cy="126.3" rx="13.169" ry="14.296" transform="matrix(0-1.063.979 0 268.31 656.37)"/>
  <ellipse cx="209.17" cy="126.3" rx="13.169" ry="14.296" transform="matrix(0-1.063.979 0 338.31 684.37)"/>
  <ellipse cx="209.17" cy="126.3" rx="13.169" ry="14.296" transform="matrix(0-1.063.979 0 380.31 656.37)"/>
  <ellipse cx="209.17" cy="126.3" rx="13.169" ry="14.296" transform="matrix(0-1.063.979 0 366.31 642.37)"/>
  <ellipse cx="209.17" cy="126.3" rx="13.169" ry="14.296" transform="matrix(0-1.063.979 0 254.31 642.37)"/>
  <ellipse cx="209.17" cy="126.3" rx="13.169" ry="14.296" transform="matrix(0-1.063.979 0 296.31 614.5)"/>
  <ellipse cx="209.17" cy="126.3" rx="13.169" ry="14.296" transform="matrix(0-1.063.979 0 394.31 684.37)"/>
 </g>
 <g style="fill:#b62">
  <circle cx="238" cy="70" r="14" transform="matrix(.5 0 0 .5 280 364)"/>
  <circle cx="238" cy="70" r="14" transform="matrix(.5 0 0 .5 336 392)"/>
  <circle cx="238" cy="70" r="14" transform="matrix(.5 0 0 .5 322 364)"/>
  <circle cx="238" cy="70" r="14" transform="matrix(.5 0 0 .5 364 434)"/>
  <circle cx="238" cy="70" r="14" transform="matrix(.5 0 0 .5 294 420)"/>
  <circle cx="238" cy="70" r="14" transform="matrix(.5 0 0 .5 406 406)"/>
  <circle cx="238" cy="70" r="14" transform="matrix(.5 0 0 .5 266 350)"/>
  <circle cx="238" cy="70" r="14" transform="matrix(.5 0 0 .5 322 434)"/>
 </g>
 <defs>
  <linearGradient id="0" x1="0" x2="1" gradientUnits="userSpaceOnUse" gradientTransform="matrix(0 392-392 0 392 140)">
   <stop offset="0%" style="stop-color:#879f38"/>
   <stop offset="100%" style="stop-color:#6e8031"/>
  </linearGradient>
  <linearGradient id="1" x1="0" x2="1" gradientUnits="userSpaceOnUse" gradientTransform="matrix(0-168 168 0 420 476)">
   <stop offset="0%" style="stop-color:#787878"/>
   <stop offset="100%" style="stop-color:#424242"/>
  </linearGradient>
  <linearGradient id="2" x1="0" x2="1" gradientUnits="userSpaceOnUse" gradientTransform="matrix(26.338 0 0 28.591 196 126.3)">
   <stop offset="0%" style="stop-color:#ed9"/>
   <stop offset="100%" style="stop-color:#fffedd"/>
  </linearGradient>
 </defs>
</svg>
