<svg viewBox="0 0 110 110" xmlns="http://www.w3.org/2000/svg"><g fill="none" fill-rule="evenodd"><path fill="#edb427" d="m0 0h110v110h-110z"/><g fill="#000"><path d="m53.25 38.809c.225-.069.425-.018.593.15.171.169.301.241.391.218.136-.069.171-.169.102-.303-.181-.287-.543-.309-1.086-.066"/><path d="m50.29 39.21c0 .134.054.191.168.166.092 0 .188-.102.289-.315.102-.213.275-.328.526-.354h-.34c-.431.069-.644.238-.644.503"/><path d="m79.24 74.33c-.067-.044-.253-.15-.558-.316-.305-.169-.549-.312-.73-.438-.184-.122-.418-.334-.714-.634-.295-.3-.526-.618-.698-.953-.168-.334-.333-.785-.492-1.353-.158-.569-.247-1.2-.27-1.891-.317.269-.495.797-.526 1.588-.035.794.133 1.603.508 2.425.375.828.936 1.362 1.682 1.606.724.246 1.308.509 1.749.787.444.278.726.597.85.953.124.357-.085.741-.628 1.154-.543.413-1.415.818-2.615 1.222-1.653.557-2.824 1.031-3.517 1.422-.691.387-1.704 1.128-3.04 2.222-.908.738-1.87 1.134-2.888 1.19-1.019.054-1.847-.312-2.478-1.106-.635-.79-.838-1.912-.613-3.362.428-2.784.418-4.959-.035-6.522-.362-1.225-.441-2.306-.238-3.244.206-.938.52-1.481.952-1.638.428-.156.895.178 1.393 1 .045.11.146.328.305.654.159.322.289.55.391.684.102.134.253.306.46.519.203.212.457.362.765.45.305.09.66.147 1.069.169.768.022 1.46-.134 2.073-.469.609-.334 1.069-.71 1.374-1.122.305-.413.613-.806.917-1.188.305-.378.571-.59.8-.634.247-.043.475-.29.678-.737.203-.444.34-1.063.406-1.857.067-.79.013-1.731-.168-2.825-.339-1.941-1.016-4.072-2.02-6.39-1.01-2.319-2.136-4.134-3.38-5.454-2.244-2.341-3.748-4.772-4.519-7.29-.794-2.653-1.133-5.04-1.019-7.159.114-1.516-.223-3.159-1-4.931-.781-1.775-1.815-3.128-3.107-4.066-.816-.6-1.825-1.062-3.02-1.388-1.199-.322-2.399-.472-3.599-.45-1.473 0-2.65.231-3.536.7-1.812.962-3.01 2.125-3.599 3.497-.59 1.372-.86 3.059-.815 5.066.089 4.415.27 7.875.542 10.372-.317 1.159-1.72 3.334-4.211 6.522-.454.447-.895 1.047-1.327 1.806-.428.759-.768 1.438-1.019 2.041-.247.603-.581 1.472-1 2.609-.419 1.138-.717 1.941-.899 2.41-.158.4-.41.869-.749 1.403-.34.538-.609 1.059-.815 1.572-.203.513-.318 1.094-.34 1.741-.023.49 0 .915.07 1.269.089.537.26.703.508.503 1.018-.76 2.298-.313 3.84 1.337 1.086 1.16 3 3.86 5.741 8.097.226.378.454.785.679 1.219.226.438.441 1.015.644 1.741.203.725.289 1.378.254 1.956-.032.578-.292 1.116-.781 1.606-.486.49-1.219.803-2.19.934-.521.069-1.149.022-1.886-.131-.736-.157-1.672-.413-2.802-.772-1.133-.356-1.971-.6-2.517-.734-.79-.178-1.917-.406-3.377-.687-1.463-.278-2.418-.485-2.872-.616-.771-.203-1.19-.494-1.257-.872-.07-.312.089-.846.476-1.606.384-.759.578-1.303.578-1.638.022-.243.01-.49-.035-.734-.045-.247-.098-.438-.152-.572-.058-.131-.153-.334-.289-.6-.137-.269-.228-.469-.273-.603-.406-.934-.463-1.572-.168-1.906.203-.29.689-.403 1.46-.334 1.155.113 2.095-.056 2.822-.5 1.199-.738 1.562-1.918 1.085-3.547 0 .76-.136 1.329-.406 1.706-.273.378-.749.769-1.428 1.169-.384.225-1.064.356-2.038.403-.974.044-1.619.2-1.936.466-.228.203-.346.503-.358.903-.01.403.041.813.152 1.222.115.416.229.888.343 1.422.111.534.156.981.133 1.34-.022.244-.225.854-.609 1.822-.387.969-.466 1.712-.238 2.222.111.247.305.466.578.656.27.188.651.35 1.137.485.488.131.933.238 1.342.315.406.078.974.178 1.698.3.723.126 1.301.232 1.733.319 1.45.29 3.104.769 4.96 1.438 1.857.669 3.114 1.015 3.771 1.038.635.025 1.241-.106 1.818-.382.578-.281 1.069-.6 1.475-.956.41-.357 1.016-.691 1.819-1 .803-.313 1.704-.478 2.701-.5.453-.025 1.107-.05 1.971-.085.86-.034 1.504-.05 1.935-.05 1.946 0 3.419.01 4.415.031.679.022 1.212.128 1.597.318.388.191.635.406.749.654.111.243.298.528.561.853.258.322.594.585 1 .785.86.403 1.869.562 3.02.484 1.155-.078 1.924-.294 2.311-.65.635-.603 1.488-1.316 2.564-2.141 1.077-.825 2.044-1.45 2.905-1.875.18-.09.488-.234.916-.434.432-.2.794-.375 1.089-.518.292-.147.651-.328 1.07-.554.418-.222.758-.428 1.019-.618.26-.19.526-.406.796-.654.273-.243.448-.49.527-.734.079-.246.107-.497.085-.753-.022-.256-.158-.525-.406-.803-.248-.275-.6-.55-1.054-.818m-17.15-31.51c.067-.041.114-.059.137-.05.022.012.067.056.133.134.07.078.13.15.187.219.058.066.136.156.238.266.105.113.21.2.324.269.136.09.301.15.492.184.193.034.343.091.444.166.102.078.175.206.219.385.044.246.006.469-.118.669-.127.2-.288.29-.495.269-.406-.091-.847-.441-1.324-1.054-.476-.612-.556-1.097-.238-1.456m-4.212-12.994c.111-.144.181-.262.203-.35.045-.134.051-.274.016-.418-.035-.144-.023-.29.035-.434.054-.147.187-.228.39-.253.203 0 .476.168.816.502.067.044.175.113.321.2.149.091.25.169.308.234.054.066.082.122.082.166-.045.113-.146.191-.305.234-.158.044-.327.066-.508.066-.184 0-.285.013-.308.034-.18.069-.349.169-.508.303-.158.134-.285.231-.375.3-.092.066-.18.066-.273 0-.089-.134-.123-.228-.102-.284.023-.056.093-.156.206-.3m-16.443 25.04c.158-.178.273-.326.34-.438.067-.11.13-.259.187-.45.054-.187.108-.328.153-.418.045-.087.115-.122.203-.1.045.025.08.044.102.069.022.022.035.05.035.081v.103c0 .031-.007.078-.016.131-.012.06-.028.106-.05.154-.022.043-.048.109-.07.2-.022.087-.045.166-.067.231-.089.225-.232.425-.426.603-.19.178-.333.256-.422.234-.14-.044-.127-.178.032-.4m21.998 18.18c.191 1.172.267 1.991.219 2.46-.045.715-.197 1.715-.457 3.01-.26 1.294-.425 2.154-.492 2.578-.476-.025-.749-.197-.816-.518-.07-.326 0-.744.203-1.257.498-1.494.758-2.518.781-3.078.044-1.026-.067-1.603-.34-1.738-.251-.178-.635.156-1.155 1-.997 1.606-2.999 2.574-6.01 2.909-2.72.357-4.6-.043-5.64-1.203-.228-.156-.453-.184-.679-.084-.228.1-.375.206-.441.318-.022.044 0 .11.067.2.067.088.175.222.324.4.145.178.263.357.355.538.882 1.516.803 2.541-.238 3.078 0-1.028-.079-1.813-.238-2.359-.158-.547-.476-1.15-.952-1.806-.476-.659-.803-1.156-.984-1.49.679-.066 1.194-.322 1.546-.766.349-.447.508-.926.476-1.441-.035-.513-.235-.938-.597-1.272-.203-.2-1.257-1.053-3.157-2.556-1.905-1.506-3.082-2.516-3.536-3.03-.089-.09-.362-.312-.813-.668-.454-.357-.736-.669-.851-.938-1.041-2.25-1.155-4.103-.34-5.554l.137-.166c.115-.022.124.178.035.6-.136.628-.184 1.25-.136 1.875.089 1.406.498 2.453 1.222 3.144.476.469.803.434.984-.1.136-.178.2-.838.187-1.975-.009-1.134.007-1.906.051-2.306.181-1.272.721-2.844 1.615-4.715.895-1.875 1.603-2.878 2.124-3.01-.41-.644-.54-1.347-.391-2.106.146-.759.384-1.406.714-1.941.327-.534.66-1.153.999-1.856.343-.703.511-1.331.511-1.89 0-.154.01-.269.035-.334.067-.2.349.046.847.734.952 1.384 1.666 2.2 2.143 2.443.498.269 1.051.257 1.663-.031.613-.29 1.365-.771 2.26-1.44.895-.669 1.66-1.16 2.294-1.472.067-.022.175-.072.321-.15.149-.078.26-.134.34-.169.079-.031.184-.081.308-.15.123-.066.219-.122.288-.166.067-.044.133-.094.203-.15.067-.056.111-.112.136-.169.023-.056.032-.106.032-.15-.044-.2-.14-.325-.288-.369-.146-.044-.346-.016-.594.084-.25.1-.526.234-.831.4-.308.169-.648.36-1.022.569-.371.213-.752.41-1.136.588-.388.178-.794.334-1.225.469-.429.131-.838.209-1.222.231-.952.025-1.711-.222-2.276-.734-.362-.334-.555-.547-.578-.634-.022-.091.08-.11.305-.069 1.225.156 2.117.181 2.685.069.59-.091 1.38-.347 2.377-.769.203-.09.72-.31 1.545-.654.825-.346 1.467-.587 1.92-.718.273-.069.461-.172.559-.318.102-.144.136-.278.105-.4-.035-.126-.108-.219-.223-.285-.25-.134-.476-.047-.679.266-.114.2-.352.397-.714.587-.362.188-.695.334-1 .434-.305.1-.695.216-1.171.35-.476.134-.737.213-.781.234-1.247.378-2.403.546-3.466.503-.498-.022-.901-.094-1.206-.219-.305-.122-.514-.269-.629-.434-.114-.169-.295-.378-.543-.634-.25-.256-.533-.474-.851-.653-.225-.113-.31-.313-.253-.603.057-.29.232-.59.526-.903.023-.022.254-.159.696-.418.441-.254.755-.519.936-.785.203-.312.556-.634 1.051-.972.022-.087.041-.334.051-.734.012-.402-.096-.837-.321-1.306-.228-.466-.533-.7-.917-.7-.546-.022-.929.131-1.155.469-.228.334-.33.746-.305 1.234.02.425.128.8.321 1.122.193.325.368.484.527.484.251-.022.331.069.238.269-.136.247-.317.403-.543.469-.158.044-.333-.106-.527-.45-.193-.347-.34-.762-.441-1.257-.102-.49-.143-.902-.121-1.237.048-.691.236-1.354.562-1.991.327-.634.8-.94 1.409-.918.635.025 1.142.4 1.53 1.138.384.734.565 1.741.543 3.01.067.16.245.213.526.169.283-.043.657-.05 1.12-.018.467.034.8.153 1 .353.022 0 .035-.169.035-.503-.41-2.809.6-4.302 3.02-4.481.366.066.67.15.917.25.251.1.518.269.8.5.282.234.52.575.714 1.022.19.446.345 1 .457 1.672v1.237c0 .716-.146 1.116-.441 1.206-.476.157-.816.15-1.019-.018-.203-.166-.18-.462.067-.885.229-.559.181-1.206-.133-1.94-.317-.738-.895-1.072-1.733-1-.568.022-.974.322-1.224.9-.251.581-.34 1.15-.273 1.706.07.56.193.847.375.872.136.022.539.2 1.206.534.669.334 1.171.534 1.514.603.882.178 1.387.457 1.511.834.123.382.072.931-.153 1.656-.228.726-.295 1.322-.206 1.791.093.49.261.934.511 1.338.248.403.514.769.8 1.103.282.334.615.962.999 1.874.388.913.736 2.062 1.054 3.444.022.025.108.1.254.234.15.134.296.3.441.503.15.2.324.475.527.818.203.347.425.854.663 1.522.238.669.461 1.438.664 2.306.247 1.029.377 2.222.39 3.582.01 1.359.102 2.29.27 2.794.171.5.606.706 1.307.619.886-.044 1.451-.513 1.701-1.406.746-2.585.133-5.688-1.835-9.297-.748-1.406-1.393-2.331-1.935-2.778.79.447 1.605 1.282 2.443 2.51.839 1.228 1.372 2.375 1.597 3.446.023.11.086.406.188.885.102.478.158.759.171.838.009.078.054.306.133.684.079.382.12.625.12.738 0 .113.01.328.035.65.022.325.016.574-.019.753-.032.182-.067.418-.102.722-.035.3-.093.591-.168.869-.083.278-.165.585-.258.919 1.247.534 1.87 1 1.87 1.406-.476-.378-1.155-.632-2.038-.754-.882-.122-1.704-.006-2.463.35-.759.359-1.149.95-1.171 1.774-.816 0-1.393.2-1.733.6-.499.582-.762 1.366-.784 2.36-.02.99.067 2.071.26 3.24m-14.02-36.31c-.067-.022-.123-.088-.168-.2 0-.2.102-.278.305-.234.136.046.267.212.391.503.123.29.152.625.085 1 0 .066-.035.1-.102.1-.25 0-.34-.222-.273-.668.07-.334-.01-.503-.238-.503m8.801.538l-.07.097c-.18.112-.27.134-.27.069-.092-.603-.295-.947-.613-1.038-.044-.022-.092-.044-.136-.066-.158-.134-.079-.213.238-.234.067-.022.168.009.305.1.136.09.261.228.375.418.115.19.171.406.171.654"/></g></g></svg>